<?xml version="1.0"?>
<svg xmlns="http://www.w3.org/2000/svg" height="512px" viewBox="0 0 512 512" width="512px" class=""><g><path d="m452 0h-391v129.714844l-61 60v322.285156h512v-322.214844l-60-60zm-251.832031 346.039062-170.167969 121.78125v-242.753906zm30.644531 14.960938h50.375l169.078125 121h-388.53125zm81.019531-14.960938 170.167969-120.972656v242.753906zm110.167969-316.039062v200.914062l-140.789062 100.085938h-50.421876l-139.789062-99.375v-201.625zm-361 180.296875-22.722656-16.152344 22.722656-22.351562zm412.84375-16.238281-21.84375 15.527344v-37.375zm0 0" data-original="#000000" class="active-path" data-old_color="#000000" fill="#373D20"/><path d="m256 271c16.503906 0 32.3125-3.726562 46.976562-11.074219l-13.4375-26.820312c-10.457031 5.238281-21.742187 7.894531-33.539062 7.894531-41.355469 0-75-33.644531-75-75s33.644531-75 75-75 75 33.644531 75 75c0 8.269531-6.730469 15-15 15s-15-6.730469-15-15c0-24.8125-20.1875-45-45-45s-45 20.1875-45 45 20.1875 45 45 45c11.515625 0 22.03125-4.355469 30-11.496094 7.96875 7.144532 18.484375 11.496094 30 11.496094 24.8125 0 45-20.1875 45-45 0-57.898438-47.101562-105-105-105s-105 47.101562-105 105 47.101562 105 105 105zm0-90c-8.269531 0-15-6.730469-15-15s6.730469-15 15-15 15 6.730469 15 15-6.730469 15-15 15zm0 0" data-original="#000000" class="active-path" data-old_color="#000000" fill="#373D20"/></g> </svg>
